<svg id="Layer_1" enable-background="new 0 0 508.318 508.318" height="512" viewBox="0 0 508.318 508.318" width="512" xmlns="http://www.w3.org/2000/svg"><g id="XMLID_2356_"><path id="XMLID_2384_" d="m99.128 343.644c-10.794 5.343-80.34 39.767-91.176 45.13 13.649 6.626 232.514 112.896 246.207 119.544l10-60.706-10-27.231-60.609-63.475z" fill="#6058ad"/><path id="XMLID_2381_" d="m500.366 388.773c-10.843-5.367-80.353-39.773-91.181-45.133l-94.417 13.266-60.609 63.475v87.938c13.649-6.628 232.514-112.896 246.207-119.546z" fill="#453f81"/><path id="XMLID_2378_" d="m99.127 253.644c-10.749 5.321-80.082 39.639-90.913 45 13.642 6.752 232.274 114.971 245.945 121.737l10-61.737-10-28.263-60.609-63.475z" fill="#ffda2d"/><path id="XMLID_2375_" d="m500.104 298.644c-10.795-5.343-80.273-39.733-90.915-45.001l-94.421 13.265-60.609 63.474v90c13.642-6.753 232.275-114.971 245.945-121.738z" fill="#fdbf00"/><path id="XMLID_2368_" d="m99.127 163.644c-10.749 5.32-80.082 39.639-90.913 45 13.642 6.752 232.274 114.971 245.945 121.737l10-61.737-10-28.264-60.609-63.473z" fill="#76e2f8"/><path id="XMLID_2365_" d="m500.104 208.644c-10.795-5.343-80.273-39.733-90.915-45.001l-94.421 13.265-60.609 63.473v90.001c13.642-6.753 232.275-114.971 245.945-121.738z" fill="#4bb9ec"/><path id="XMLID_2362_" d="m7.819 118.448c13.669 6.766 232.642 115.152 246.34 121.932l10-120.19-10-120.19c-13.662 6.569-232.648 111.865-246.34 118.448z" fill="#ff7b4a"/><path id="XMLID_2361_" d="m500.499 118.448c-13.685-6.58-232.648-111.865-246.34-118.448v240.38c13.67-6.766 232.642-115.151 246.34-121.932z" fill="#ff435b"/><path id="XMLID_2360_" d="m187.451 105.227c4.691 9.384 8.725 17.45 13.416 26.833 6.47-3.234 46.797-23.398 53.292-26.645l10-16.771-10-16.771c-8.115 4.058-58.579 29.29-66.708 33.354z" fill="#ff435b"/><path id="XMLID_2357_" d="m307.451 132.06c4.691-9.383 8.725-17.45 13.416-26.833-8.115-4.058-58.579-29.29-66.708-33.354v.001 33.541-.001c6.471 3.236 46.797 23.399 53.292 26.646z" fill="#d0004f"/></g></svg>